<svg width="249" height="48" viewBox="0 0 249 48" fill="none" xmlns="http://www.w3.org/2000/svg">
<rect width="249" height="48" rx="5" fill="white"/>
<path d="M30.7538 27.2624H35.1455C35.1455 30.3932 34.3738 32.7988 32.8305 34.4793C31.2871 36.1598 29.1083 37 26.294 37C20.098 37 17 33.3052 17 25.9157V23.8439C17 18.0198 18.5887 14.3711 21.7662 12.8978C23.0144 12.2993 24.5237 12 26.294 12C28.8814 12 30.9807 12.7251 32.5922 14.1754C34.2263 15.6027 35.0433 17.6745 35.0433 20.3909H30.6176C30.3679 19.0327 29.9254 18.0083 29.2899 17.3177C28.6544 16.6271 27.6558 16.2818 26.294 16.2818C24.7053 16.2818 23.5251 16.7882 22.7534 17.8011C22.2087 18.5147 21.891 19.7348 21.8002 21.4613C21.7548 22.0138 21.7321 22.762 21.7321 23.7058V25.8467C21.7321 28.494 22.0953 30.3011 22.8215 31.268C23.5705 32.2348 24.728 32.7182 26.294 32.7182C27.8827 32.7182 28.9721 32.2808 29.5622 31.4061C30.175 30.5083 30.5722 29.1271 30.7538 27.2624Z" fill="#09FF04"/>
<path d="M56.948 23.3605V25.2251C56.948 29.3458 56.1763 32.3384 54.633 34.203C53.1123 36.0677 50.6612 37 47.2795 37C43.8978 37 41.4466 36.0677 39.926 34.203C38.428 32.3384 37.6791 29.3112 37.6791 25.1215V23.326C37.6791 19.5046 38.4394 16.6616 39.96 14.797C41.5033 12.9323 43.9318 12 47.2454 12C50.5817 12 53.0329 12.9438 54.5989 14.8315C56.165 16.7192 56.948 19.5622 56.948 23.3605ZM52.2159 25.1215V23.8439C52.2159 21.634 51.9435 19.8729 51.3988 18.5608C50.7633 17.0414 49.4016 16.2818 47.3135 16.2818C45.2028 16.2818 43.8297 17.0414 43.1942 18.5608C42.6722 19.8039 42.4112 21.5649 42.4112 23.8439V25.1215C42.4112 28.0912 42.8197 30.0939 43.6368 31.1298C43.9545 31.5672 44.4198 31.9471 45.0326 32.2693C45.6681 32.5686 46.417 32.7182 47.2795 32.7182C48.1646 32.7182 48.9136 32.5686 49.5264 32.2693C50.1392 31.9701 50.6158 31.6017 50.9562 31.1644C51.2967 30.727 51.5577 30.1515 51.7392 29.4378C52.057 28.3099 52.2159 26.8711 52.2159 25.1215Z" fill="#09FF04"/>
<path d="M77.938 12.2072L70.3121 35.4116C69.9036 36.4705 69.1773 37 68.1333 37C67.0439 37 66.2949 36.4705 65.8864 35.4116L58.3627 12.2072H63.265L68.1333 28.2293L73.0016 12.2072H77.938Z" fill="#09FF04"/>
<path d="M84.8335 36.7928H80.1014V12.2072H84.8335V36.7928Z" fill="#FAFF04"/>
<path d="M108.756 24.3964L108.79 27.0552C108.699 28.7357 108.495 30.1515 108.177 31.3025C107.859 32.4535 107.235 33.5009 106.305 34.4448C104.761 36.0101 102.514 36.7928 99.5639 36.7928C96.0914 36.7928 93.7083 36.3324 92.4147 35.4116C91.121 34.4678 90.4742 32.7758 90.4742 30.3356V12.2072H99.9043C102.628 12.2072 104.761 12.9899 106.305 14.5552C107.553 15.8214 108.291 17.3637 108.517 19.1823C108.676 20.4715 108.756 22.2095 108.756 24.3964ZM103.002 30.9917C103.434 30.4622 103.706 29.7371 103.819 28.8163C103.956 27.8725 104.024 26.4107 104.024 24.4309C104.024 22.4512 103.956 21.0239 103.819 20.1492C103.706 19.2514 103.434 18.5378 103.002 18.0083C102.185 16.9954 101.005 16.489 99.4618 16.489H95.2063V30.0939C95.2063 31.0147 95.5127 31.6478 96.1255 31.9931C96.7383 32.3384 97.8277 32.511 99.3937 32.511C100.982 32.511 102.185 32.0046 103.002 30.9917Z" fill="#FAFF04"/>
<path d="M138.197 29.7141C138.197 31.9931 137.584 33.7426 136.358 34.9627C135.155 36.1828 133.465 36.7928 131.286 36.7928H128.017C125.339 36.7928 123.433 36.3209 122.298 35.3771C121.186 34.4332 120.63 32.7988 120.63 30.4738V12.2072H130.877C133.192 12.2072 134.928 12.7942 136.086 13.9682C137.266 15.1423 137.856 16.7997 137.856 18.9406C137.856 20.1837 137.538 21.2426 136.903 22.1174C136.29 22.9922 135.609 23.6137 134.86 23.982C137.085 25.041 138.197 26.9517 138.197 29.7141ZM130.503 21.8066C132.25 21.8066 133.124 20.9203 133.124 19.1478C133.124 17.3752 132.25 16.489 130.503 16.489H125.362V21.8066H130.503ZM133.465 29.4724C133.465 28.3674 133.272 27.5387 132.886 26.9862C132.5 26.4107 131.808 26.1229 130.809 26.1229H125.362V29.9903C125.362 30.9342 125.589 31.5902 126.043 31.9586C126.52 32.3269 127.291 32.511 128.358 32.511H130.809C132.579 32.511 133.465 31.4982 133.465 29.4724Z" fill="#27FF04"/>
<path d="M161.388 36.7928H155.906L151.174 27.6768H147.77V36.7928H143.038V17.4903C143.038 15.6487 143.458 14.3135 144.297 13.4848C145.137 12.6331 146.544 12.2072 148.519 12.2072H152.536C154.942 12.2072 156.848 12.9553 158.255 14.4517C159.685 15.925 160.4 17.8011 160.4 20.0801C160.4 21.7376 159.969 23.1763 159.107 24.3964C158.267 25.5935 157.223 26.4222 155.975 26.8826L161.388 36.7928ZM152.23 23.6713C153.228 23.6713 154.045 23.326 154.681 22.6354C155.339 21.9217 155.668 21.047 155.668 20.011C155.668 18.9521 155.35 18.1004 154.715 17.4558C154.102 16.8112 153.274 16.489 152.23 16.489H149.881C148.474 16.489 147.77 17.2141 147.77 18.6644V23.6713H152.23Z" fill="#27FF04"/>
<path d="M183.696 36.7928H178.76L177.398 32.5456H169.262L167.934 36.7928H162.998L170.76 14.279C171.1 13.4963 171.475 12.9553 171.883 12.6561C172.314 12.3568 172.836 12.2072 173.449 12.2072C174.062 12.2072 174.55 12.3453 174.913 12.6215C175.299 12.8978 175.639 13.4503 175.934 14.279L183.696 36.7928ZM176.309 28.5055L173.449 18.768L170.453 28.5055H176.309Z" fill="#27FF04"/>
<path d="M201.491 36.7928H189.167C187.919 36.7928 186.966 36.4936 186.307 35.895C185.649 35.2965 185.32 34.5138 185.32 33.547C185.32 32.5801 185.672 31.5672 186.376 30.5083L195.908 16.489H186.001V12.2072H201.491V16.0055L190.427 32.511H201.491V36.7928Z" fill="#27FF04"/>
<path d="M210.406 36.7928H205.673V12.2072H210.406V36.7928Z" fill="#27FF04"/>
<path d="M230.992 36.7928H223.774C221.051 36.7928 219.076 36.2634 217.851 35.2044C216.648 34.1225 216.046 32.3729 216.046 29.9558V12.2072H220.778V29.9558C220.778 30.9226 220.994 31.5902 221.425 31.9586C221.856 32.3269 222.639 32.511 223.774 32.511H230.992V36.7928Z" fill="#27FF04"/>
</svg>
